<?xml version="1.0" encoding="UTF-8"?>
<svg id="_レイヤー_2" data-name="レイヤー 2" xmlns="http://www.w3.org/2000/svg" viewBox="0 0 390.86 386.98">
  <g id="_レイヤー_1-2" data-name="レイヤー 1">
    <path d="M380.24,258.99L255.34,24.08c-5.69-10.7-15.2-18.54-26.79-22.08-11.58-3.54-23.85-2.36-34.55,3.33-10.7,5.69-18.54,15.2-22.08,26.79-3.54,11.59-2.36,23.86,3.33,34.55l76.63,144.12c.48.9-.54,1.85-1.41,1.32L107.49,124.49c-10.72-6.57-23.36-8.57-35.58-5.64-12.23,2.94-22.58,10.46-29.15,21.18-6.57,10.72-8.57,23.36-5.64,35.58,2.94,12.23,10.46,22.58,21.18,29.15l138.47,84.86c1.72,1.05.97,3.71-1.05,3.71H47.52C21.75,293.33.43,313.97,0,339.35c-.21,12.67,4.56,24.61,13.43,33.63,8.87,9.02,20.73,13.99,33.39,13.99h260.59v-.08c22.22-.76,43-9.88,58.64-25.78,16-16.26,24.81-37.78,24.81-60.6,0-14.53-3.68-28.91-10.62-41.53Z"/>
  </g>
</svg>